<?xml version="1.0" standalone="no"?>
<!DOCTYPE svg PUBLIC "-//W3C//DTD SVG 20010904//EN"
 "http://www.w3.org/TR/2001/REC-SVG-20010904/DTD/svg10.dtd">
<svg version="1.0" xmlns="http://www.w3.org/2000/svg"
 width="266.000000pt" height="266.000000pt" viewBox="0 0 266.000000 266.000000"
 preserveAspectRatio="xMidYMid meet">
<metadata>
Created by potrace 1.11, written by Peter Selinger 2001-2013
</metadata>
<g transform="translate(0.000000,266.000000) scale(0.100000,-0.100000)"
fill="#000000" stroke="none">
<path d="M1200 2640 c-300 -24 -602 -167 -820 -390 -180 -184 -299 -407 -356
-671 -26 -117 -26 -389 0 -509 44 -206 123 -382 240 -538 194 -257 441 -419
766 -500 94 -23 125 -26 285 -27 193 0 277 12 424 61 329 110 601 344 759 652
102 197 142 369 143 602 2 317 -95 595 -291 836 -80 97 -222 227 -234 213 -2
-2 -74 -98 -160 -213 l-157 -209 67 -67 c174 -175 244 -360 231 -608 -6 -119
-22 -183 -73 -287 -101 -207 -287 -358 -509 -415 -107 -27 -273 -27 -381 0
-260 65 -462 255 -550 515 -39 115 -45 293 -15 418 78 325 359 566 693 594
l68 6 0 273 c0 255 -1 274 -17 273 -10 -1 -61 -5 -113 -9z"/>
</g>
</svg>
